Coordinates
version=1
nRows=16
nColumns=40
inDegrees=yes

Units are S.I. units (second, meters, Newtons, ...)
If the header above contains a line with 'inDegrees', this indicates whether rotational values are in degrees (yes) or radians (no).

endheader
time	pelvis_tilt	pelvis_list	pelvis_rotation	pelvis_tx	pelvis_ty	pelvis_tz	hip_flexion_r	hip_adduction_r	hip_rotation_r	knee_angle_r	knee_angle_r_beta	ankle_angle_r	subtalar_angle_r	mtp_angle_r	hip_flexion_l	hip_adduction_l	hip_rotation_l	knee_angle_l	knee_angle_l_beta	ankle_angle_l	subtalar_angle_l	mtp_angle_l	lumbar_extension	lumbar_bending	lumbar_rotation	arm_flex_r	arm_add_r	arm_rot_r	elbow_flex_r	pro_sup_r	wrist_flex_r	wrist_dev_r	arm_flex_l	arm_add_l	arm_rot_l	elbow_flex_l	pro_sup_l	wrist_flex_l	wrist_dev_l
      3.27500000	    -36.83013465	      9.74050232	      0.29163049	     -0.41494397	      0.65544451	     -0.92916426	     96.48797280	    -17.39578853	      9.37160876	     85.03015405	      1.48405615	     26.90783890	      0.00000000	      0.00000000	     86.93872154	     -7.60598156	     -9.00396899	     82.67921481	      1.44302452	     34.04809683	      0.00000000	      0.00000000	    -21.02862043	     -6.95128415	     -9.79569226	      6.36894877	    -45.19989937	     68.68843076	     86.09321281	     87.47005703	      0.00000000	      0.00000000	     -8.32857938	    -52.00739828	     58.19672929	     89.54173287	     86.19369759	      0.00000000	      0.00000000
      3.28000000	    -36.39326954	      9.40725468	      0.01020993	     -0.41205654	      0.65973400	     -0.92805493	     95.20024029	    -17.10505592	      8.85455501	     84.44296774	      1.47380782	     26.90846175	      0.00000000	      0.00000000	     85.97487441	     -7.81231896	     -8.69195029	     82.13626368	      1.43354824	     33.92758486	      0.00000000	      0.00000000	    -20.51579803	     -6.79970925	     -9.61294697	      5.75604026	    -45.03154317	     67.54612846	     86.00127495	     87.49047216	      0.00000000	      0.00000000	     -9.58104118	    -51.84368837	     56.48156919	     89.65701029	     86.13295095	      0.00000000	      0.00000000
      3.28500000	    -35.88201401	      9.32313522	     -0.44691420	     -0.40907525	      0.66444800	     -0.92671429	     93.91793409	    -16.64083074	      8.60448960	     83.80074630	      1.46259894	     26.71658854	      0.00000000	      0.00000000	     84.80806318	     -8.14441081	     -8.69529099	     81.53055665	      1.42297665	     33.76642964	      0.00000000	      0.00000000	    -20.00873168	     -6.96704851	     -9.33242681	      5.30429877	    -44.73721839	     66.75872753	     85.70576266	     87.46965110	      0.00000000	      0.00000000	    -10.40897228	    -51.66163489	     55.42931002	     89.51647172	     86.10157137	      0.00000000	      0.00000000
      3.29000000	    -35.69609925	      8.49342968	     -0.46562119	     -0.40667473	      0.66861332	     -0.92572074	     92.67971992	    -16.45874318	      7.61942722	     83.13861491	      1.45104257	     26.62214874	      0.00000000	      0.00000000	     84.30876378	     -8.23576445	     -7.78350922	     80.98026431	      1.41337224	     33.39526825	      0.00000000	      0.00000000	    -19.17307607	     -6.24131281	     -9.18407335	      4.50020395	    -44.69905745	     65.46160818	     85.81493273	     87.46331699	      0.00000000	      0.00000000	    -11.72516623	    -51.36633274	     53.75775430	     89.57910485	     86.07150240	      0.00000000	      0.00000000
      3.29500000	    -34.90350652	      8.75064263	     -0.66135922	     -0.40305066	      0.67413460	     -0.92537202	     91.24420556	    -16.47135188	      7.73640642	     82.50927661	      1.44005854	     26.37888814	      0.00000000	      0.00000000	     82.65387129	     -8.04194758	     -8.08260054	     80.15314422	      1.39893627	     33.19742575	      0.00000000	      0.00000000	    -18.94121964	     -6.62266089	     -9.29631417	      4.07914196	    -44.52825192	     64.76869712	     85.74239295	     87.44394997	      0.00000000	      0.00000000	    -12.38382887	    -51.26108483	     53.04234919	     89.53701009	     86.06227713	      0.00000000	      0.00000000
      3.30000000	    -34.12294231	      8.59215024	     -1.60127473	     -0.39932150	      0.67945968	     -0.92283561	     89.55957118	    -15.48052134	      7.42219075	     81.75436127	      1.42688278	     26.27691118	      0.00000000	      0.00000000	     81.11597859	     -8.96648052	     -8.15508657	     79.60766799	      1.38941592	     33.12950735	      0.00000000	      0.00000000	    -18.64105050	     -6.91226213	     -8.68335530	      3.08128294	    -44.18629064	     63.05278591	     85.75806502	     87.47506952	      0.00000000	      0.00000000	    -14.28088732	    -50.97152676	     50.61021459	     89.73664062	     86.06992482	      0.00000000	      0.00000000
      3.30500000	    -33.98179576	      7.62537678	     -1.63549850	     -0.39704019	      0.68408407	     -0.92180654	     88.29854718	    -15.17035241	      6.32885811	     80.96195386	      1.41305266	     25.83793758	      0.00000000	      0.00000000	     80.67806245	     -9.19057074	     -7.12661799	     79.03340083	      1.37939306	     32.61384970	      0.00000000	      0.00000000	    -17.67585045	     -6.03314997	     -8.51014590	      2.20547637	    -44.25583586	     61.76762615	     86.19417524	     87.44855494	      0.00000000	      0.00000000	    -15.61067075	    -50.77249610	     49.14107452	     90.10270377	     86.05548618	      0.00000000	      0.00000000
      3.31000000	    -32.99129866	      7.57731300	     -1.96491075	     -0.39290903	      0.69037559	     -0.92084641	     86.40667559	    -14.98953179	      6.13825996	     80.18697119	      1.39952666	     25.68621781	      0.00000000	      0.00000000	     78.77956791	     -9.28466235	     -7.21738797	     78.16873318	      1.36430177	     32.50978095	      0.00000000	      0.00000000	    -17.61965138	     -6.16594964	     -8.51176452	      1.38038517	    -44.03061412	     60.43972880	     86.45041618	     87.44583338	      0.00000000	      0.00000000	    -16.85319900	    -50.51644403	     47.69594789	     90.32165913	     86.07527685	      0.00000000	      0.00000000
      3.31500000	    -31.96512867	      7.74741995	     -2.61482400	     -0.38866826	      0.69664268	     -0.91940844	     84.61880236	    -14.52424548	      6.22414304	     79.40307919	      1.38584517	     25.35797581	      0.00000000	      0.00000000	     76.77676249	     -9.66361195	     -7.65398602	     77.35011930	      1.35001426	     32.32021703	      0.00000000	      0.00000000	    -17.50686055	     -6.63095406	     -8.22948603	      0.33743428	    -43.92818948	     58.87668147	     86.85063368	     87.44629110	      0.00000000	      0.00000000	    -18.18331177	    -50.36999342	     46.21140008	     90.57102354	     86.09910472	      0.00000000	      0.00000000
      3.32000000	    -31.44783955	      7.43794645	     -3.34235999	     -0.38567004	      0.70236748	     -0.91742659	     83.19319996	    -13.61631108	      5.97431856	     78.45074379	      1.36922378	     24.68809550	      0.00000000	      0.00000000	     75.53888079	    -10.41530782	     -7.60275950	     76.60523425	      1.33701356	     31.81675774	      0.00000000	      0.00000000	    -16.83294609	     -6.63908203	     -7.59410701	     -0.56794851	    -44.02274288	     57.81560728	     87.57111026	     87.41148859	      0.00000000	      0.00000000	    -19.32375190	    -50.22632302	     45.12935287	     90.97935825	     86.06291455	      0.00000000	      0.00000000
      3.32500000	    -31.11240366	      6.19546176	     -3.06086606	     -0.38266731	      0.70803855	     -0.91712127	     81.50901121	    -13.59866767	      4.50681779	     77.51572453	      1.35290462	     24.28583774	      0.00000000	      0.00000000	     74.91693282	    -10.45320731	     -6.25945667	     75.94738235	      1.32553188	     31.10045013	      0.00000000	      0.00000000	    -16.14540844	     -5.29337263	     -7.64595496	     -1.96721994	    -44.32545430	     56.01334370	     88.59725002	     87.40199440	      0.00000000	      0.00000000	    -20.76449483	    -49.76572281	     43.47816539	     91.45320768	     86.09296032	      0.00000000	      0.00000000
      3.33000000	    -29.79274249	      6.43416228	     -3.98886703	     -0.37800491	      0.71556856	     -0.91529819	     79.34861889	    -12.92184839	      4.76689430	     76.52146898	      1.33555158	     23.80176337	      0.00000000	      0.00000000	     72.37780799	    -11.11439327	     -7.12337937	     74.94757445	      1.30808194	     30.85853432	      0.00000000	      0.00000000	    -16.29647466	     -5.90219167	     -7.10229001	     -2.84030015	    -44.33166992	     54.99270862	     89.23705119	     87.40648758	      0.00000000	      0.00000000	    -21.80106900	    -49.73090919	     42.51065354	     91.91939808	     86.08326789	      0.00000000	      0.00000000
      3.33500000	    -28.68459233	      6.38639693	     -4.69717414	     -0.37382914	      0.72307282	     -0.91372911	     77.30261354	    -12.34428820	      4.74800720	     75.48265746	      1.31742090	     23.08933838	      0.00000000	      0.00000000	     70.21303332	    -11.64906383	     -7.60123852	     73.94593677	      1.29060007	     30.32052013	      0.00000000	      0.00000000	    -16.29434503	     -6.14530892	     -6.63501397	     -3.94808033	    -44.54556358	     53.76704148	     90.22237806	     87.39404397	      0.00000000	      0.00000000	    -22.92747834	    -49.64920682	     41.35243109	     92.49675253	     86.09569848	      0.00000000	      0.00000000
      3.34000000	    -28.39393646	      4.82403341	     -4.41073184	     -0.37059829	      0.72956738	     -0.91339981	     75.35573506	    -12.03128081	      2.98370936	     74.17170552	      1.29454047	     22.79470620	      0.00000000	      0.00000000	     69.59871348	    -11.93856324	     -5.96253586	     73.13092923	      1.27637550	     29.48256488	      0.00000000	      0.00000000	    -15.58405002	     -4.42620129	     -6.56059686	     -5.50495493	    -45.11440394	     51.99232073	     91.45096482	     87.41551519	      0.00000000	      0.00000000	    -24.27511232	    -49.25654633	     39.91001337	     93.11672661	     86.15738234	      0.00000000	      0.00000000
      3.34500000	    -27.39321827	      4.82830832	     -5.19496897	     -0.36652434	      0.73737386	     -0.91200343	     73.44832442	    -11.43145990	      2.99226885	     72.98213278	      1.27377851	     21.80450786	      0.00000000	      0.00000000	     67.47908916	    -12.56154445	     -6.64054460	     72.06149090	      1.25771028	     28.77391150	      0.00000000	      0.00000000	    -15.41632187	     -4.70111991	     -5.94200169	     -6.47075324	    -45.61336779	     51.27117967	     92.69218633	     87.40432700	      0.00000000	      0.00000000	    -25.23966475	    -49.32123673	     39.07568420	     93.89624335	     86.15038800	      0.00000000	      0.00000000
      3.35000000	    -26.52851001	      3.86314817	     -5.66259718	     -0.36242326	      0.74539340	     -0.91048790	     71.10968751	    -10.59654887	      2.04231983	     71.52540425	      1.24835380	     21.16522126	      0.00000000	      0.00000000	     65.73181946	    -13.42391316	     -6.20670564	     70.96972651	      1.23865540	     27.93455234	      0.00000000	      0.00000000	    -15.29881402	     -3.86693671	     -5.40143773	     -7.82245520	    -46.11166386	     49.86180137	     93.77072459	     87.41125447	      0.00000000	      0.00000000	    -26.63989834	    -49.08557841	     37.67998010	     94.60629380	     86.14982592	      0.00000000	      0.00000000
